<svg xmlns="http://www.w3.org/2000/svg" viewBox="0 0 960 560" font-family="Georgia, 'Times New Roman', serif">
  <defs>
    <marker id="arrow" viewBox="0 0 10 10" refX="9" refY="5" markerWidth="6" markerHeight="6" orient="auto">
      <path d="M0,0 L10,5 L0,10 z" fill="#1a1a1a"/>
    </marker>
    <style>
      .box { fill: #faf6ef; stroke: #1a1a1a; stroke-width: 1.5; }
      .hot { fill: #fff1d6; stroke: #c0392b; stroke-width: 1.5; }
      .cool { fill: #e6f4ea; stroke: #2e7d32; stroke-width: 1.5; }
      .cold { fill: #dfe9ff; stroke: #2c5ea9; stroke-width: 1.5; }
      .dsk { fill: #e9e6ff; stroke: #5a4fcf; stroke-width: 1.5; }
      .label { font-size: 13px; font-weight: 600; fill: #1a1a1a; }
      .step { font-size: 12px; font-family: 'Menlo', monospace; fill: #222; }
      .small { font-size: 10px; font-family: 'Menlo', monospace; fill: #555; }
      .caption { font-size: 11px; fill: #555; font-style: italic; }
      .title { font-size: 16px; font-weight: 700; fill: #1a1a1a; }
      .head { font-size: 12px; font-weight: 700; fill: #1a1a1a; }
    </style>
  </defs>

  <text x="480" y="24" text-anchor="middle" class="title">وكيل الترميز الطرفي الأصلي - حلقة التخطيط/الفعل/المراقبة</text>

  <rect x="40" y="50" width="200" height="460" class="box"/>
  <text x="140" y="72" text-anchor="middle" class="head">بدوره دورة الحياة</text>

  <rect x="60" y="90" width="160" height="44" class="cool"/>
  <text x="140" y="108" text-anchor="middle" class="step">plan</text>
  <text x="140" y="126" text-anchor="middle" class="small">إعادة كتابة TodoWrite</text>

  <rect x="60" y="148" width="160" height="44" class="hot"/>
  <text x="140" y="166" text-anchor="middle" class="step">act</text>
  <text x="140" y="184" text-anchor="middle" class="small">استدعاء أداة الإرسال</text>

  <rect x="60" y="206" width="160" height="44" class="cold"/>
  <text x="140" y="224" text-anchor="middle" class="step">observe</text>
  <text x="140" y="242" text-anchor="middle" class="small">اقتطاع + تغذية راجعة</text>

  <rect x="60" y="264" width="160" height="44" class="dsk"/>
  <text x="140" y="282" text-anchor="middle" class="step">recover</text>
  <text x="140" y="300" text-anchor="middle" class="small">إعادة المحاولة / الضغط / التوقف</text>

  <rect x="60" y="340" width="160" height="150" class="box"/>
  <text x="140" y="360" text-anchor="middle" class="head">budgets</text>
  <text x="140" y="382" text-anchor="middle" class="small">الحد الأقصى = 50</text>
  <text x="140" y="400" text-anchor="middle" class="small">max_tokens = 200 ألف</text>
  <text x="140" y="418" text-anchor="middle" class="small">الحد الأقصى_دولار = 5 دولارات</text>
  <text x="140" y="446" text-anchor="middle" class="small">مسبقة الصنع بسعر 150 ألفًا</text>
  <text x="140" y="464" text-anchor="middle" class="small">التوقف عن أي خرق</text>

  <rect x="270" y="50" width="310" height="230" class="box"/>
  <text x="425" y="72" text-anchor="middle" class="head">الأدوات (MCP StreamableHTTP)</text>
  <rect x="290" y="88" width="270" height="30" class="cool"/>
  <text x="425" y="108" text-anchor="middle" class="step">read_file /edit_file</text>
  <rect x="290" y="124" width="270" height="30" class="cool"/>
  <text x="425" y="144" text-anchor="middle" class="step">ripgrep / Tree_sitter_symbols</text>
  <rect x="290" y="160" width="270" height="30" class="hot"/>
  <text x="425" y="180" text-anchor="middle" class="step">run_shell (مهلة)</text>
  <rect x="290" y="196" width="270" height="30" class="cold"/>
  <text x="425" y="216" text-anchor="middle" class="step">git (الحالة / الفرق / الالتزام / الدفع)</text>
  <text x="425" y="254" text-anchor="middle" class="small">تعود كل مكالمة بحد أقصى 4 آلاف رمز</text>
  <text x="425" y="270" text-anchor="middle" class="small">يتم تشغيل كل مكالمة داخل وضع الحماية</text>

  <rect x="270" y="294" width="310" height="216" class="box"/>
  <text x="425" y="316" text-anchor="middle" class="head">وضع الحماية (E2B / دايتونا)</text>
  <text x="425" y="336" text-anchor="middle" class="small">حاوية تطوير جديدة لكل مهمة</text>
  <text x="425" y="352" text-anchor="middle" class="small">git شجرة العمل إضافة الوكيل/TASK_ID</text>
  <text x="425" y="368" text-anchor="middle" class="small">القراءة والكتابة داخل الشجرة فقط</text>
  <text x="425" y="384" text-anchor="middle" class="small">لا توجد شبكة ما لم تكن مدرجة في القائمة المسموح بها</text>
  <rect x="290" y="398" width="270" height="40" class="dsk"/>
  <text x="425" y="418" text-anchor="middle" class="step">تنظيف شجرة العمل عند التوقف</text>
  <text x="425" y="430" text-anchor="middle" class="small">النجاح أو الفشل، دائما</text>
  <text x="425" y="464" text-anchor="middle" class="small">يبقى نظام الملفات المضيف دون تغيير</text>
  <text x="425" y="482" text-anchor="middle" class="small">تم تحديد نطاق بيانات الاعتماد بواسطة تطبيق GitHub</text>
  <text x="425" y="500" text-anchor="middle" class="small">الأوامر المدمرة المحظورة بواسطة الخطاف</text>

  <rect x="610" y="50" width="310" height="460" class="box"/>
  <text x="765" y="72" text-anchor="middle" class="head">سطح الخطاف (شكل 2026)</text>
  <rect x="630" y="88" width="270" height="30" class="cool"/>
  <text x="765" y="108" text-anchor="middle" class="step">بداية الجلسة / نهاية الجلسة</text>
  <rect x="630" y="124" width="270" height="30" class="hot"/>
  <text x="765" y="144" text-anchor="middle" class="step">PreToolUse / PostToolUse</text>
  <rect x="630" y="160" width="270" height="30" class="cold"/>
  <text x="765" y="180" text-anchor="middle" class="step">UserPromptSubmit / الإخطار</text>
  <rect x="630" y="196" width="270" height="30" class="dsk"/>
  <text x="765" y="216" text-anchor="middle" class="step">توقف / PreCompact</text>

  <text x="765" y="256" text-anchor="middle" class="small">خطافات المستخدم المرجعية:</text>
  <text x="765" y="274" text-anchor="middle" class="small">· حارس القيادة المدمرة</text>
  <text x="765" y="290" text-anchor="middle" class="small">· رمز مميز + محاسبة بالدولار</text>
  <text x="765" y="306" text-anchor="middle" class="small">· OTel تمتد باعث في استدعاء الأداة</text>
  <text x="765" y="322" text-anchor="middle" class="small">· تتبع حزمة الكاتب على التوقف</text>

  <rect x="630" y="340" width="270" height="150" class="box"/>
  <text x="765" y="362" text-anchor="middle" class="head">observability</text>
  <text x="765" y="384" text-anchor="middle" class="small">OpenTelemetry GenAI semconv</text>
  <text x="765" y="402" text-anchor="middle" class="small">فترة واحدة لكل استدعاء أداة</text>
  <text x="765" y="420" text-anchor="middle" class="small">الرموز المميزة + $ المرفقة كسمات</text>
  <text x="765" y="438" text-anchor="middle" class="small">Langfuse بالوعة ذاتية الاستضافة</text>
  <text x="765" y="468" text-anchor="middle" class="small">يتم شحن حزمة التتبع بنص PR</text>

  <text x="480" y="540" text-anchor="middle" class="caption">SWE-هدف bench Pro: pass@1 عند أو أعلى من خط الأساس لـ mini-swe-agent، أقل من 5 دولارات لكل مهمة</text>
</svg>